PathFileType	4	(X/Y/Z)	40_2_105_p1_0-550_filt_butterworth.trc
DataRate	CameraRate	NumFrames	NumMarkers	Units	OrigDataRate	OrigDataStartFrame	OrigNumFrames
54.0	54.0	5	27	m	54.0	68	550
Frame#	Time	RHip			RKnee			RAnkle			RBigToe			RSmallToe			RHeel			LHip			LKnee			LAnkle			LBigToe			LSmallToe			LHeel			Neck			Head			Nose			RShoulder			RElbow			RWrist			RThumb			RIndex			RPinky			LShoulder			LElbow			LWrist			LThumb			LIndex			LPinky			
		X1	Y1	Z1	X2	Y2	Z2	X3	Y3	Z3	X4	Y4	Z4	X5	Y5	Z5	X6	Y6	Z6	X7	Y7	Z7	X8	Y8	Z8	X9	Y9	Z9	X10	Y10	Z10	X11	Y11	Z11	X12	Y12	Z12	X13	Y13	Z13	X14	Y14	Z14	X15	Y15	Z15	X16	Y16	Z16	X17	Y17	Z17	X18	Y18	Z18	X19	Y19	Z19	X20	Y20	Z20	X21	Y21	Z21	X22	Y22	Z22	X23	Y23	Z23	X24	Y24	Z24	X25	Y25	Z25	X26	Y26	Z26	X27	Y27	Z27	
68	1.2592592592592593	0.3276770797480747	0.8062667471390443	0.6771473389845069	0.3166444050587077	0.33582579738987917	0.7555742875623483	0.32357035292600744	-0.05052485092961574	0.7894170560433886	0.3102811165414553	-0.10331504922189738	0.6945151194500965	0.3768601510704299	-0.08947942865028198	0.6804349488401314	0.30735990882045006	-0.11519735579148459	0.8425611711031834	0.14002961948220133	0.8038088956536934	0.6993927415401382	0.12111445306490598	0.3331264025852372	0.7896192985160468	0.11552500870517488	-0.10033340912906047	0.8394960196016817	0.1428742872911074	-0.08026319822880613	0.6405346012703169	0.08244028943246177	-0.11243710322530136	0.7160804224117129	0.13173137049192707	-0.14874253544195395	0.8830608752160167	0.2468268888974463	1.3502259478899201	0.672557773702382	0.2510536994267417	1.5771766518161068	0.6340181598565122	0.2709541743955355	1.4552222111044166	0.5650213915168969	0.37587124185591825	1.2576794092813655	0.7138437335907806	0.3739698498928321	0.9658053974843488	0.7033000532597513	0.3075489916701655	0.7681686047083387	0.5464278429744368	0.23008005065283638	0.6784195254924594	0.5299119840709947	0.2302219479822084	0.6701816647040916	0.5510736731166578	0.24759251612451816	0.6529064092452425	0.5954872681266477	0.09949149791609317	1.2551859811669428	0.6804004093027913	0.1038268717289294	0.9928811998847192	0.654385390867878	0.18194975658319676	0.7745534931025003	0.5267511754442278	0.24458750251628092	0.7025987008374593	0.49692541148191804	0.24408317705556362	0.6882944758764955	0.5018453473870355	0.2210334759476242	0.6520382626031918	0.5739647553708016	
69	1.2777777777777777	0.3272290820685536	0.8057157203406327	0.6784288776264982	0.31663388664737085	0.3358485546254406	0.7555511811045401	0.32357576283411527	-0.05051207023666786	0.7894103497015026	0.31023368805412477	-0.10336131038568296	0.6934397393330907	0.37690151304798736	-0.08955564436204916	0.6805340898936852	0.3076502410168242	-0.11515732604239155	0.8428500588574349	0.14002397318751703	0.8034921560506196	0.6996187747893847	0.12104868379447602	0.3334033428419511	0.789581619175854	0.11544599267717304	-0.10051643444494625	0.8395500713992102	0.14278312159811055	-0.08054153034628353	0.64059441152232	0.08242614779494134	-0.11249042282927954	0.7160439420107595	0.13174991533465633	-0.14878068715877288	0.8830445459499059	0.24684874067196572	1.3502006488594145	0.6728141320814589	0.2509763348692505	1.5771534341725935	0.6344225201493773	0.2709866767546262	1.4545091097640905	0.5649798876250132	0.3759026549330602	1.25833615551679	0.7138915304636448	0.3739724191681042	0.9656540327175265	0.7035866693458199	0.30751376264491725	0.7674962928221479	0.5463360816072357	0.2300428952621988	0.6783619163050008	0.5300992866460656	0.2303702296718752	0.6692823933338024	0.5537661456179774	0.2470650231439063	0.6529653926027946	0.5953694223761029	0.0994905392570693	1.2551628257890783	0.6807450170233322	0.10295138197581385	0.9927862522344821	0.6562533213984738	0.18194803805516802	0.7745363929110698	0.526830899025946	0.2445302136095115	0.7024911197362912	0.4973465779749547	0.24389591402920385	0.6875825073111371	0.5038682175064514	0.22139077088622472	0.6517038770310443	0.576037501324064	
70	1.2962962962962965	0.3268450928079845	0.8051347043372897	0.6795881942933643	0.31662405335528737	0.3358693281346442	0.7555202687062331	0.32358204838722965	-0.050504546445228754	0.7894128366778337	0.31036113219963296	-0.10375431816254899	0.6931543314783923	0.37696526194012925	-0.08960748257496651	0.6806646743336654	0.30798320331944246	-0.11513731173314255	0.8431808272541581	0.13998175210147087	0.8032673832686514	0.699523673266587	0.12097251589151231	0.33391319466098784	0.7895426592594212	0.1153571371964885	-0.10049658776917372	0.8395193509734696	0.14284763837324924	-0.0802525302012059	0.6405971381753356	0.08244594942781272	-0.11237091388731246	0.7160146933503909	0.13175694056079584	-0.1487394443686209	0.8830626502224899	0.2468389670729773	1.3501734777125145	0.6730653816157529	0.2505274801564299	1.5772212249176816	0.6355917682695233	0.27100219675917087	1.4538463605644523	0.564955713175405	0.3759238433506489	1.2588505536516812	0.7139289432864442	0.3738751059956152	0.9655564405478186	0.7033293233941187	0.307526727176717	0.7668118484220774	0.5459091662415876	0.22944223203898942	0.6783425777983261	0.5300760798282133	0.2301216752800327	0.668752977683295	0.5553812470656211	0.24640632732986717	0.6530268156048744	0.5952205131346793	0.09946784449219828	1.2551923757738803	0.6805641553118253	0.10243626431318445	0.9932451846760577	0.6571031822277209	0.1819309899254382	0.7745202094659017	0.526845523789023	0.24424154312587587	0.7021111340254811	0.49867141648490565	0.24300638977765854	0.6865757922070964	0.506607687103808	0.22169488928957043	0.651838496744128	0.5776360636507452	
71	1.3148148148148149	0.32659415003037473	0.8046711926786024	0.6804081298789524	0.31661653050848576	0.3358924938402658	0.7554719792397485	0.32358866887619464	-0.05049964994890835	0.7894214628469163	0.31056149462951954	-0.1042939975823154	0.6934843174460208	0.37703883876128175	-0.08959634478898804	0.6807466420721267	0.3083771643511735	-0.11512165081611463	0.8435805679863183	0.13990156187036795	0.8031467737645905	0.6990906497369749	0.12086350190333986	0.3345228981159384	0.7895756622384902	0.11527097181194922	-0.10024132103728495	0.8394060983540061	0.1430506837551421	-0.07947777239193604	0.6405444849756985	0.08253210745818093	-0.11197288880883419	0.7159946954155102	0.1317501824120945	-0.14864552727156086	0.883110583624415	0.24682106287530026	1.350161956230804	0.6731321892247708	0.24974140033271003	1.5773137608925423	0.6374100810282053	0.27100649239894076	1.4532545648136808	0.5649321042508078	0.3759334163148883	1.2591383304583932	0.7139493588179393	0.37379875747085345	0.9653971039885397	0.702990172730623	0.30751958626967413	0.7663003218325479	0.5453226991751083	0.22845933859431722	0.6783733761395953	0.5298543883077613	0.22953525871858543	0.6688221631457929	0.5552508300628326	0.24569689315731275	0.6530853807861249	0.5950690112127268	0.099402178097412	1.2553140333412287	0.6795195569230537	0.10230286456832423	0.9940459967940036	0.6569347242604731	0.1818959876499418	0.7745044349906459	0.5267658912355951	0.24368916366071702	0.7014431644437807	0.500854536638373	0.24172507656293443	0.6855384226029213	0.5093807396955425	0.22187634312776486	0.6524246508100552	0.5784581465240445	
72	1.3333333333333333	0.32646504334497667	0.8043672331640421	0.6808740831907494	0.31661014330432646	0.3359226361405084	0.7554055711552254	0.3235947417428178	-0.05049162020263709	0.7894294661717897	0.31072005378067025	-0.10460716329032337	0.6936522546592446	0.3771044430696412	-0.08951895954357585	0.6807553695437486	0.3088174936227263	-0.1151251370401393	0.8440373677317177	0.1397843986529206	0.8031496033645131	0.6983145818437212	0.1206789664739431	0.3349923544892118	0.789771010868727	0.1151973808495324	-0.09973746579971746	0.8392651847571064	0.14332718110990533	-0.07846224014437826	0.6404651371592305	0.08268483251355627	-0.11132262347586601	0.7159860900330021	0.13173052106040656	-0.1485580515246472	0.8831608915152552	0.246813130650575	1.3501593354984383	0.6730818326690045	0.24875509155364056	1.5773926770390094	0.6396115874909878	0.2710141224622028	1.4527194636792307	0.5648960228787175	0.3759335197659259	1.2591847481563196	0.7139505505759064	0.3737879907306764	0.9651820232924471	0.7028153211398457	0.30734006387649526	0.7658947064463337	0.5452529829122561	0.22744808458847982	0.6784412662443983	0.5295329113626746	0.22888031234147033	0.6694663604755796	0.5534428761258687	0.24501902436613035	0.6531336421193261	0.5949394235047463	0.09929235218167803	1.2555241034410343	0.6776747365145175	0.10239996624856718	0.9949020014611754	0.6562034944466063	0.18184408826329979	0.7744871695350201	0.5266136308375813	0.24291791684506242	0.7005939006233929	0.5034273962184262	0.24041984090923574	0.684755747033224	0.5114164419422538	0.2219072406398077	0.6532343771881982	0.5784758841873822	
